<svg id="Calque_1" data-name="Calque 1" xmlns="http://www.w3.org/2000/svg" viewBox="0 0 340.16 96.67"><defs><style>.cls-1{fill:#000;}</style></defs><title>logo</title><path class="cls-1" d="M98.3,68.93H90.55V36.67h5c10.51,0,17.61,5.16,17.61,15.49,0,10.78-5.16,16.77-14.84,16.77M90.55,7h4.8c13.45,0,17.14,8.94,17.14,13.82,0,12.54-7.46,14.38-15.85,14.38H90.55Zm12.82,29.12v-.18c6.63-.65,18.53-1.93,18.53-16,0-7.47-7.66-14.38-21.39-14.38H72.4V7h8.75V68.93H72.4v1.48h31.52c8.67,0,19.73-5,19.73-17.43,0-11.7-10.24-16-20.28-16.87" transform="translate(-72.4 -4.04)"/><path class="cls-1" d="M205.71,36.3H201.1V7h6.27C220.46,7,223,14.45,223,21.83c0,10.69-6.36,14.47-17.24,14.47M138.88,47.91l9-27.93h.18l9.5,27.93Zm202.17,21H328.43V38.14h6.82c9.68,0,10.6,4.24,10.6,11.25h1.47V24.87h-1.47c0,6-.92,11.8-10.51,11.8h-6.91V7H342.9c9.77,0,16.77,3.59,16.77,14.19h1.48L360,5.51h-72.2V7h4.33c4.06,0,4.8,1.19,4.8,5V53.63h-.19L261.94,5.51H242.58V7h8.85V63.68c0,4.42-1.48,5.25-5.72,5.25h-8.84c-1.57,0-4.15-.37-4.8-5.81l-1.29-10.69c-1.38-12.17-7-14.47-17.6-15.39v-.19c6.73-.83,19.72-3.78,19.72-15,0-13.92-11.52-16.32-22.12-16.32h-28.3V7h9.22V68.93H175L153.13,5.51h-2l-19.32,58c-1.75,5.16-2.95,5.44-5.81,5.44h-3v1.48h19V68.93h-4.8c-2.95,0-4.05-1-4.05-2.3A20.23,20.23,0,0,1,134.55,61l3.78-11.61h19.73l6.63,19.54h-9v1.48h54.85V68.93H201.1V37.77h6c10.42,0,12.08,5.26,12.73,11.07l.64,5.53c1.29,10.6,1.94,16,13.18,16h28.67V68.93h-3.69c-4.24,0-5.72-.83-5.72-5.25V9.93h.19l43.75,60.48h1.6V12c0-3.78.74-5,4.8-5H319V68.93h-8.11v1.48h53.74V51.51h-1.47c0,15.67-7.19,17.42-22.13,17.42" transform="translate(-72.4 -4.04)"/><path class="cls-1" d="M393.56,32.06c-15.3-2.77-18.43-4.61-18.43-12.91,0-8.48,5.53-13.64,13.36-13.64,12.35,0,18.07,9.5,18.9,20h1.47V6.16h-1.47c-.28,1.19-.55,3.5-2.67,3.5C401.58,9.66,398,4,388.49,4c-10.32,0-17.24,7.65-17.24,18.16,0,15.48,6.83,17.88,21.3,20.18,10.6,1.66,15.58,4.52,15.58,14.11,0,8.29-6.36,13.92-15.21,13.92-11.06,0-20.19-7.29-20.19-22.77h-1.48V71h1.48c0-1.57.09-3.87,2.31-3.87,3.4,0,8.29,4.79,17.51,4.79,13.37,0,20-9,20-21.11s-5.53-16.32-19-18.71" transform="translate(-72.4 -4.04)"/><path class="cls-1" d="M375.31,90.94" transform="translate(-72.4 -4.04)"/><path class="cls-1" d="M375.83,91.05" transform="translate(-72.4 -4.04)"/><line class="cls-1" x1="288.63" y1="86.64" x2="289.88" y2="84.66"/><path class="cls-1" d="M109.12,98.75V89.12h1.18v11.14h-1.18Z" transform="translate(-72.4 -4.04)"/><path class="cls-1" d="M133,89.77v-.65h7.8v.65h-3.31v10.49h-1.18V89.77H133Z" transform="translate(-72.4 -4.04)"/><path class="cls-1" d="M146.87,100.26s0-.05,0-1.62v-8c0-1.49,0-1.57,0-1.57h5.25v.65h-4.06v4.59h3.86V95h-3.86v4.6h4.6l-.29.65Z" transform="translate(-72.4 -4.04)"/><path class="cls-1" d="M181.89,89.12v11.59l-8.42-9.66v9.21h-.79V89.12h.71L181.1,98V89.12Z" transform="translate(-72.4 -4.04)"/><path class="cls-1" d="M197.26,98.7,193,88.6l-4.29,10.05-.77,1.61H189c.11-.28.13-.4.27-.77s.18-.57.34-1l1.06-2.58h4.09l1.15,2.76c.18.43.24.63.35,1l.23.62h1.45ZM191,95.27,192.71,91l1.79,4.32Z" transform="translate(-72.4 -4.04)"/><path class="cls-1" d="M229.36,88.93A5.37,5.37,0,0,1,235,94.56a5.65,5.65,0,0,1-6,5.89,5.38,5.38,0,0,1-5.63-5.63A5.64,5.64,0,0,1,229.36,88.93Zm-.43.68c-2.48,0-4.24,2-4.24,5s2,5.19,4.74,5.19c2.48,0,4.24-2,4.24-5S231.66,89.61,228.93,89.61Z" transform="translate(-72.4 -4.04)"/><path class="cls-1" d="M272.74,89.12h1.18V99.61h4.44v.65h-5.62V89.12Z" transform="translate(-72.4 -4.04)"/><path class="cls-1" d="M364,89.12l-1,1.55-2.85,4.81v3.27c0,1.3-.11,1.49,0,1.51H359V95.47l-2.82-4.81a16.39,16.39,0,0,0-.94-1.54h1.45l.32.56c.11.19.26.46.51.88l2.38,4.13,2.39-4.06c.22-.4.29-.56.45-.87l.34-.64Z" transform="translate(-72.4 -4.04)"/><path class="cls-1" d="M126.62,89.12v11.59l-8.42-9.66v9.21h-.79V89.12h.71L125.83,98V89.12Z" transform="translate(-72.4 -4.04)"/><path class="cls-1" d="M250.54,89.12v11.59l-8.42-9.66v9.21h-.79V89.12H242L249.75,98V89.12Z" transform="translate(-72.4 -4.04)"/><path class="cls-1" d="M202,89.77v-.65h7.79v.65h-3.3v10.49h-1.19V89.77H202Z" transform="translate(-72.4 -4.04)"/><path class="cls-1" d="M216,98.75V89.12h1.19v9.63c0,1.46,0,1.51,0,1.51H216Z" transform="translate(-72.4 -4.04)"/><path class="cls-1" d="M305.86,100.26V89.12h5.25v.65H307v4.59h3.87V95H307v4.6h4.61l-.3.65Z" transform="translate(-72.4 -4.04)"/><path class="cls-1" d="M342.71,89.77v-.65h7.8v.65h-3.3v10.49H346s0,0,0-1.51v-9h-3.31Z" transform="translate(-72.4 -4.04)"/><path class="cls-1" d="M332.8,89.12H334V99.61h4.44v.65H332.8V89.12Z" transform="translate(-72.4 -4.04)"/><path class="cls-1" d="M187.6,98.51" transform="translate(-72.4 -4.04)"/><path class="cls-1" d="M195.91,98.69" transform="translate(-72.4 -4.04)"/><path class="cls-1" d="M265.93,98.7l-4.26-10.1-4.29,10.05-.76,1.61h1.06c.1-.28.13-.4.26-.77s.18-.57.35-1l1-2.58h4.09l1.16,2.76c.18.43.23.63.34,1l.23.62h1.46Zm-6.31-3.43L261.38,91l1.79,4.32Z" transform="translate(-72.4 -4.04)"/><path class="cls-1" d="M326,98.7l-4.26-10.1-4.29,10.05-.77,1.61h1.06c.1-.28.13-.4.27-.77s.18-.57.34-1l1.05-2.58h4.1l1.15,2.76c.18.43.23.63.35,1l.23.62h1.45Zm-6.32-3.43L321.42,91l1.8,4.32Z" transform="translate(-72.4 -4.04)"/><path class="cls-1" d="M164.55,92.26a2.36,2.36,0,0,0-2.46-2.48H160.7v10.61h-1.18V89.12h2.54c2.7,0,3.67,1.49,3.67,2.95a3.22,3.22,0,0,1-2.56,3l-.26.05,2.88,3.66c1.18,1.46,1.25,1.58,1.25,1.58h-1.46l-4.45-5.67h1A2.38,2.38,0,0,0,164.55,92.26Z" transform="translate(-72.4 -4.04)"/><path class="cls-1" d="M297.74,92.26a2.36,2.36,0,0,0-2.46-2.48h-1.39v10.61h-1.18V89.12h2.54c2.7,0,3.67,1.49,3.67,2.95a3.22,3.22,0,0,1-2.56,3l-.26.05L299,98.81c1.18,1.46,1.25,1.58,1.25,1.58h-1.46l-4.45-5.67h1A2.38,2.38,0,0,0,297.74,92.26Z" transform="translate(-72.4 -4.04)"/></svg>